# AST/ASF file generated using VICON BodyLanguage
# -----------------------------------------------
:version 1.10
:name VICON
:units
  mass 1.0
  length 0.45
  angle deg
:documentation
   .ast/.asf automatically generated from VICON data using
   VICON BodyBuilder and BodyLanguage model FoxedUp or BRILLIANT.MOD
:root
   order TX TY TZ RX RY RZ
   axis XYZ
   position 0 0 0  
   orientation 0 0 0 
:bonedata
  begin
     id 1 
     name lhipjoint
     direction 0.528046 -0.759594 0.379717 
     length 2.39752 
     axis 0 0 0  XYZ
  end
  begin
     id 2 
     name lfemur
     direction 0.34202 -0.939693 0  
     length 7.31175  
     axis 0 0 20  XYZ
    dof rx ry rz
    limits (-160.0 20.0)
           (-70.0 70.0)
           (-60.0 70.0)
  end
  begin
     id 3 
     name ltibia
     direction 0.34202 -0.939693 0   
     length 7.52482   
     axis 0 0 20   XYZ
    dof rx
    limits (-10.0 170.0)
  end
  begin
     id 4 
     name lfoot
     direction 0.0675379 -0.185559 0.980309   
     length 2.00961   
     axis -90 7.62852e-016 20   XYZ
    dof rx rz
    limits (-45.0 90.0)
           (-70.0 20.0)
  end
  begin
     id 5 
     name ltoes
     direction 1.5352e-011 -4.22286e-011 1   
     length 1.01383   
     axis -90 7.62852e-016 20   XYZ
    dof rx
    limits (-90.0 20.0)
  end
  begin
     id 6 
     name rhipjoint
     direction -0.510274 -0.769251 0.384544   
     length 2.36742  
     axis 0 0 0  XYZ 
  end
  begin
     id 7 
     name rfemur
     direction -0.34202 -0.939693 0   
     length 7.45325   
     axis 0 0 -20   XYZ
    dof rx ry rz
    limits (-160.0 20.0)
           (-70.0 70.0)
           (-70.0 60.0)
  end
  begin
     id 8 
     name rtibia
     direction -0.34202 -0.939693 0   
     length 7.49587   
     axis 0 0 -20   XYZ
    dof rx
    limits (-10.0 170.0)
 end
 begin
     id 9 
     name rfoot
     direction -0.106475 -0.292536 0.950308   
     length 2.20898  
     axis -90 -7.62852e-016 -20   XYZ
    dof rx rz
    limits (-45.0 90.0)
           (-20.0 70.0)
  end
  begin
     id 10 
     name rtoes
     direction -1.53597e-011 -4.22023e-011 1   
     length 1.10065   
     axis -90 -7.62852e-016 -20   XYZ
    dof rx
    limits (-90.0 20.0)
  end
  begin
     id 11 
     name lowerback
     direction 0.0260024 0.998026 -0.0571652   
     length 2.11214   
     axis 0 0 0   XYZ
    dof rx ry rz
    limits (-20.0 45.0)
           (-30.0 30.0)
           (-30.0 30.0)
  end
  begin
     id 12 
     name upperback
     direction 0.0216202 0.999542 -0.0211766   
     length 2.11689   
     axis 0 0 0   XYZ
    dof rx ry rz
    limits (-20.0 45.0)
           (-30.0 30.0)
           (-30.0 30.0)
  end
  begin
     id 13 
     name thorax
     direction 0.00883312 0.999944 0.00589057   
     length 2.11821   
     axis 0 0 0   XYZ
    dof rx ry rz
    limits (-20.0 45.0)
           (-30.0 30.0)
           (-30.0 30.0)
  end
  begin
     id 14 
     name lowerneck
     direction -0.059386 0.994433 0.0870401   
     length 1.81176   
     axis 0 0 0   XYZ
    dof rx ry rz
    limits (-20.0 45.0)
           (-30.0 30.0)
           (-30.0 30.0)
  end
  begin
     id 15 
     name upperneck
     direction 0.0506457 0.97328 -0.223967   
     length 1.82382   
     axis 0 0 0   XYZ
    dof rx ry rz
    limits (-20.0 45.0)
           (-30.0 30.0)
           (-30.0 30.0)
  end
  begin
     id 16
     name head
     direction 0.0205902 0.996147 -0.0852487  
     length 1.84805  
     axis 0 0 0   XYZ
    dof rx ry rz
    limits (-20.0 45.0)
           (-30.0 30.0)
           (-30.0 30.0)
  end
  begin
     id 17 
     name lclavicle
     direction 0.949493 0.303881 -0.0782325  
     length 3.60584  
     axis 0 0 0   XYZ
    dof ry rz
    limits (-20.0 10.0)
           (0.0 20.0)
  end
  begin
     id 18 
     name lhumerus
     direction 1 -4.48965e-011 1.48782e-027   
     length 4.95681   
     axis 180 -30 -90   XYZ
    dof rx ry rz
    limits (-60.0 90.0)
           (-90.0 90.0)
           (-90.0 90.0)
  end
  begin
     id 19
     name lradius
     direction 1 -4.48952e-011 2.06528e-027   
     length 3.40915   
     axis 180 -30 -90   XYZ
    dof rx
    limits (-10.0 170.0)
  end
  begin
     id 20
     name lwrist
     direction 1 -4.48964e-011 1.28021e-027   
     length 1.70457   
     axis -1.61767e-015 90 90   XYZ
    dof ry
    limits (-180.0 0.0)
 end
  begin
     id 21 
     name lhand
     direction 1 -4.49094e-011 2.54887e-027   
     length 0.616403   
     axis -1.63363e-015 90 90   XYZ
    dof rx rz
    limits (-90.0 90.0)
           (-45.0 45.0)
  end
  begin
     id 22 
     name lfingers
     direction 1 -4.49002e-011 5.11407e-027   
     length 0.49696   
     axis -3.26723e-015 90 90   XYZ
    dof rx
    limits (0.0 90.0)
  end
  begin
     id 23
     name lthumb
     direction 0.707107 -6.34998e-011 0.707107   
     length 0.713539   
     axis -90 45 -2.25915e-014   XYZ
    dof rx rz
    limits (-45.0 45.0)
           (-45.0 45.0)
  end
  begin
     id 24 
     name rclavicle
     direction -0.937751 0.334612 -0.0930482   
     length 3.46287  
     axis 0 0 0   XYZ 
    dof ry rz
    limits (-10.0 20.0)
           (-20.0 0.0)
  end
  begin
     id 25 
     name rhumerus
     direction -1 -4.48962e-011 3.59972e-027  
     length 5.352   
     axis 180 30 90   XYZ
    dof rx ry rz
    limits (-90.0 60.0)
           (-90.0 90.0)
           (-90.0 90.0)
  end
  begin
     id 26 
     name rradius
     direction -1 -4.48987e-011 -3.76925e-027   
     length 3.43721   
     axis 180 30 90   XYZ
    dof rx
    limits (-10.0 170.0)
  end
  begin
     id 27 
     name rwrist
     direction -1 -4.48943e-011 1.28112e-027   
     length 1.7186   
     axis -1.61767e-015 -90 -90   XYZ
    dof ry
    limits (-180.0 0.0)
  end
  begin
     id 28
     name rhand
     direction -1 -4.49027e-011 2.55483e-027   
     length 0.72009   
     axis -1.63363e-015 -90 -90   XYZ
    dof rx rz
    limits (-90.0 90.0)
           (-45.0 45.0)
  end
  begin
     id 29
     name rfingers
     direction -1 -4.48827e-011 5.14506e-027   
     length 0.580555   
     axis -3.26723e-015 -90 -90   XYZ
    dof rx
    limits (0.0 90.0)
  end
  begin
     id 30
     name rthumb
     direction -0.707107 -6.34936e-011 0.707107   
     length 0.833564   
     axis -90 -45 2.25915e-014   XYZ
    dof rx rz
    limits (-45.0 45.0)
           (-45.0 45.0)
  end
:hierarchy
  begin
    root lhipjoint rhipjoint lowerback
    lhipjoint lfemur
    lfemur ltibia
    ltibia lfoot
    lfoot ltoes
    rhipjoint rfemur
    rfemur rtibia
    rtibia rfoot
    rfoot rtoes
    lowerback upperback
    upperback thorax
    thorax lowerneck lclavicle rclavicle
    lowerneck upperneck
    upperneck head
    lclavicle lhumerus
    lhumerus lradius
    lradius lwrist
    lwrist lhand lthumb
    lhand lfingers
    rclavicle rhumerus
    rhumerus rradius
    rradius rwrist
    rwrist rhand rthumb
    rhand rfingers
  end

#!OML:ASF H:\Terrain\Patient Classification 1\Terrain2\Thursday\justin.ASF
:FULLY-SPECIFIED
:DEGREES
879
root 19.5418 23.8023 15.26 -177.914 -6.16508 -177.447
lowerback 6.60799 0.796576 3.30585
upperback 2.55338 1.04109 3.11983
thorax -1.06314 0.404651 1.28215
lowerneck -11.0086 2.56176 -9.25691
upperneck 40.8687 -0.437593 3.29222
head 16.5295 -2.90656 2.5492
rclavicle 9.54166e-015 1.90833e-014
rhumerus -32.3018 -10.5156 -78.519
rradius 34.2086
rwrist -13.1051
rhand -20.4669 12.0434
rfingers 7.12502
rthumb 5.88905 -17.8547
lclavicle 9.54166e-015 1.90833e-014
lhumerus -40.6201 10.2677 82.4637
lradius 28.6121
lwrist 2.23035
lhand -17.8026 18.6595
lfingers 7.12502
lthumb 8.46085 48.47
rfemur -26.3412 -8.11769 24.2584
rtibia 38.204
rfoot -12.3513 4.94529
rtoes 15.8599
lfemur 5.72078 -5.10325 -17.0935
ltibia 34.9373
lfoot -3.49177 -14.2695
ltoes 1.8339
880
root 19.5593 23.8175 15.1523 -178.002 -6.36138 -177.307
lowerback 6.57103 0.437512 3.30508
upperback 2.58304 0.534841 3.49003
thorax -1.01516 0.138317 1.70264
lowerneck -11.0733 2.78794 -9.717
upperneck 40.8737 0.128745 3.05286
head 16.4987 -2.78928 2.61108
rclavicle -1.05356e-014 -6.44062e-014
rhumerus -31.9244 -9.07014 -78.5273
rradius 34.1237
rwrist -13.3838
rhand -20.5702 11.314
rfingers 7.12502
rthumb 5.7893 -18.5869
lclavicle -1.05356e-014 -6.44062e-014
lhumerus -40.8264 11.0741 82.696
lradius 28.552
lwrist 1.76639
lhand -17.4057 19.2888
lfingers 7.12502
lthumb 8.84389 49.0835
rfemur -25.7089 -8.60646 24.4967
rtibia 37.9927
rfoot -12.7089 5.12588
rtoes 15.0885
lfemur 5.22777 -5.38416 -16.8231
ltibia 36.1701
lfoot -1.31017 -14.1571
ltoes 3.6948
881
root 19.5774 23.831 15.0502 -178.069 -6.36935 -176.967
lowerback 6.61272 0.727111 4.06069
upperback 2.49834 0.985638 3.20906
thorax -1.10816 0.372607 0.956321
lowerneck -10.7474 2.49901 -8.73352
upperneck 40.8512 -0.633449 2.97417
head 16.4738 -2.96074 2.27698
rclavicle 2.10712e-014 3.33958e-014
rhumerus -32.2167 -10.5103 -78.5133
rradius 33.9658
rwrist -13.0802
rhand -20.4805 11.7831
rfingers 7.12502
rthumb 5.87589 -18.1154
lclavicle 2.10712e-014 3.33958e-014
lhumerus -40.6175 9.2502 82.7777
lradius 28.5284
lwrist 1.50134
lhand -16.2901 19.8855
lfingers 7.12502
lthumb 9.92026 49.6318
rfemur -25.1496 -8.69205 24.9244
rtibia 37.7671
rfoot -12.9254 5.24885
rtoes 15.9533
lfemur 4.50723 -5.07692 -16.1785
ltibia 37.5332
lfoot 0.994392 -14.3739
ltoes 5.40212
882
root 19.5907 23.8367 14.9493 -178.159 -6.2471 -176.715
lowerback 6.75338 0.586025 4.23483
upperback 2.50009 0.79049 3.55813
thorax -1.18766 0.259349 1.23352
lowerneck -10.8259 2.64238 -9.2379
upperneck 40.8204 -0.20903 2.87305
head 16.4419 -2.87895 2.38876
rclavicle -5.96354e-015 -5.48646e-014
rhumerus -31.7655 -10.0045 -78.285
rradius 33.5644
rwrist -12.962
rhand -20.6372 13.0763
rfingers 7.12502
rthumb 5.72462 -16.8263
lclavicle -5.96354e-015 -5.48646e-014
lhumerus -40.7439 9.78573 83.0611
lradius 28.635
lwrist 1.33907
lhand -15.8399 20.3677
lfingers 7.12502
lthumb 10.3546 50.0927
rfemur -24.5678 -8.6253 25.207
rtibia 37.5303
rfoot -13.1143 5.4555
rtoes 17.2057
lfemur 3.76373 -4.63684 -15.6494
ltibia 39.0235
lfoot 3.25677 -14.6126
ltoes 6.05118
883
root 19.6064 23.844 14.8495 -178.251 -6.31062 -176.577
lowerback 6.87129 0.568511 4.41407
upperback 2.39394 0.787533 3.6856
thorax -1.36126 0.251492 1.2648
lowerneck -10.5585 2.65046 -9.19684
upperneck 40.7579 -0.213255 2.74275
head 16.3434 -2.89912 2.31874
rclavicle -1.78906e-015 3.81667e-014
rhumerus -31.8273 -10.1162 -78.0835
rradius 33.4819
rwrist -12.972
rhand -21.0403 13.6639
rfingers 7.12502
rthumb 5.33546 -16.2489
lclavicle -1.78906e-015 3.81667e-014
lhumerus -40.8448 9.81797 83.1045
lradius 28.4905
lwrist 0.470067
lhand -15.0057 20.8854
lfingers 7.12502
lthumb 11.1592 50.5686
rfemur -23.9475 -8.86025 25.4102
rtibia 37.2889
rfoot -13.4475 5.58569
rtoes 16.775
lfemur 2.94807 -4.71696 -15.2707
ltibia 40.6099
lfoot 6.18032 -14.2425
ltoes 10.1958
884
root 19.6238 23.8477 14.7551 -178.227 -6.41428 -176.328
lowerback 6.73538 0.480438 4.79452
upperback 2.57814 0.645586 3.82458
thorax -1.09109 0.173731 1.20829
lowerneck -11.1823 2.60745 -9.38204
upperneck 40.8398 -0.0692378 2.72705
head 16.5338 -2.84987 2.37618
rclavicle -3.18055e-015 1.82882e-014
rhumerus -31.1133 -10.1067 -78.0376
rradius 33.2038
rwrist -12.8879
rhand -21.1448 12.8778
rfingers 7.12502
rthumb 5.23455 -17.0376
lclavicle -3.18055e-015 1.82882e-014
lhumerus -40.2484 10.4367 82.9555
lradius 28.1439
lwrist -1.16245
lhand -13.5433 20.6893
lfingers 7.12502
lthumb 12.5695 50.2912
rfemur -23.5124 -9.2659 25.7844
rtibia 37.03
rfoot -13.8101 5.7068
rtoes 16.1538
lfemur 1.87453 -4.85657 -14.7367
ltibia 42.2872
lfoot 9.42185 -13.4707
ltoes 16.7365
885
root 19.6373 23.8508 14.6591 -178.372 -6.43225 -175.998
lowerback 6.75554 0.513491 5.25755
upperback 2.59141 0.706151 3.87259
thorax -1.07972 0.199767 0.995559
lowerneck -11.0284 2.52905 -9.11986
upperneck 40.7808 -0.290783 2.72879
head 16.482 -2.89792 2.29367
rclavicle 9.34288e-015 -3.18055e-015
rhumerus -31.0044 -10.4095 -77.928
rradius 33.0125
rwrist -12.9346
rhand -20.9714 12.4063
rfingers 7.12502
rthumb 5.40196 -17.5048
lclavicle 9.34288e-015 -3.18055e-015
lhumerus -40.1533 10.057 82.9608
lradius 28.1671
lwrist -1.83871
lhand -12.7835 20.0249
lfingers 7.12502
lthumb 13.3019 49.5804
rfemur -22.8863 -9.5748 26.1783
rtibia 36.748
rfoot -14.1201 5.93297
rtoes 16.2328
lfemur 0.917016 -4.68178 -14.0974
ltibia 44.0178
lfoot 12.3491 -13.0512
ltoes 20.1562
886
root 19.6526 23.863 14.5587 -178.68 -6.56101 -175.674
lowerback 6.92085 0.314776 5.46794
upperback 2.73798 0.412694 4.22146
thorax -1.02341 0.0331775 1.26208
lowerneck -11.1731 2.57567 -9.48781
upperneck 40.6407 0.0289747 2.55719
head 16.419 -2.82832 2.33608
rclavicle -6.75868e-015 -4.53229e-014
rhumerus -30.563 -9.6452 -77.8056
rradius 32.9855
rwrist -13.2827
rhand -21.0625 12.5179
rfingers 7.12502
rthumb 5.31398 -17.3955
lclavicle -6.75868e-015 -4.53229e-014
lhumerus -40.0736 10.5615 83.1954
lradius 28.266
lwrist -2.01158
lhand -12.6667 19.3919
lfingers 7.12502
lthumb 13.4144 48.94
rfemur -21.9842 -9.67774 26.4969
rtibia 36.4203
rfoot -14.3616 6.08644
rtoes 16.7996
lfemur 0.00147274 -4.23947 -13.31
ltibia 45.7786
lfoot 15.112 -13.4259
ltoes 20.4255
887
root 19.6694 23.8776 14.4581 -178.822 -6.66987 -175.537
lowerback 6.99551 0.373306 5.62169
upperback 2.73291 0.499375 4.28358
thorax -1.06648 0.0720823 1.23441
lowerneck -10.9944 2.46846 -9.25757
upperneck 40.5323 -0.15426 2.41354
head 16.3346 -2.87862 2.20183
rclavicle -1.90833e-014 -4.92986e-014
rhumerus -30.5665 -9.79334 -77.6663
rradius 33.0202
rwrist -13.4142
rhand -21.1752 12.4943
rfingers 7.12502
rthumb 5.20514 -17.4217
lclavicle -1.90833e-014 -4.92986e-014
lhumerus -39.9602 10.2125 83.3402
lradius 28.2294
lwrist -2.05867
lhand -12.5602 19.0597
lfingers 7.12502
lthumb 13.5171 48.601
rfemur -21.1987 -9.73644 26.6269
rtibia 36.0024
rfoot -14.443 6.28075
rtoes 17.1704
lfemur -1.11027 -3.94715 -12.786
ltibia 47.5647
lfoot 17.5568 -13.4004
ltoes 22.2489
